<svg width="21" height="20" viewBox="0 0 21 20" fill="none" xmlns="http://www.w3.org/2000/svg">
<path d="M19.731 18.3076L16.021 14.6276C17.4611 12.832 18.1585 10.5529 17.9698 8.2589C17.7811 5.96491 16.7207 3.83039 15.0065 2.29425C13.2924 0.758111 11.0548 -0.0628853 8.75395 7.50644e-05C6.45306 0.0630355 4.26374 1.00517 2.63616 2.63275C1.00858 4.26033 0.0664534 6.44964 0.00349303 8.75053C-0.0594674 11.0514 0.761529 13.289 2.29767 15.0031C3.83381 16.7173 5.96832 17.7777 8.26232 17.9664C10.5563 18.1551 12.8354 17.4577 14.631 16.0176L18.311 19.6976C18.404 19.7913 18.5146 19.8657 18.6364 19.9165C18.7583 19.9673 18.889 19.9934 19.021 19.9934C19.153 19.9934 19.2837 19.9673 19.4056 19.9165C19.5275 19.8657 19.6381 19.7913 19.731 19.6976C19.9113 19.5111 20.012 19.2619 20.012 19.0026C20.012 18.7433 19.9113 18.4941 19.731 18.3076ZM9.02102 16.0176C7.63655 16.0176 6.28317 15.6071 5.13203 14.8379C3.98089 14.0687 3.08368 12.9755 2.55387 11.6964C2.02405 10.4173 1.88543 9.00984 2.15553 7.65197C2.42562 6.29411 3.09231 5.04682 4.07128 4.06786C5.05024 3.08889 6.29752 2.4222 7.65539 2.15211C9.01326 1.88201 10.4207 2.02063 11.6998 2.55045C12.9789 3.08026 14.0721 3.97747 14.8413 5.12861C15.6105 6.27976 16.021 7.63314 16.021 9.0176C16.021 10.8741 15.2835 12.6546 13.9708 13.9674C12.658 15.2801 10.8775 16.0176 9.02102 16.0176Z" fill="#FFC700"/>
</svg>
