<svg width="17" height="23.999999999999996" xmlns="http://www.w3.org/2000/svg">

 <g>
  <title>background</title>
  <rect fill="none" id="canvas_background" height="402" width="582" y="-1" x="-1"/>
 </g>
 <g>
  <title>Layer 1</title>
  <path id="svg_1" stroke-width="2" stroke="white" d="m15.5116,22.9732l0.0002,0.0001c0.0302,0.0174 0.0646,0.0267 0.0995,0.0267c0.0532,0 0.1043,-0.0212 0.1419,-0.0588c0.0376,-0.0377 0.0588,-0.0887 0.0588,-0.1419l0,-19.19821c0,-0.00026 0,-0.00051 0,-0.00077c-0.0009,-0.68934 -0.2752,-1.35019 -0.7627,-1.83765c-0.4875,-0.48751 -1.1484,-0.76178 -1.8379,-0.76267l-9.59879,0c-0.68944,0.00089 -1.35039,0.27516 -1.83791,0.76267c-0.48752,0.48752 -0.76179,1.14848 -0.76268,1.83792l0,19.19901c0.00005,0.0351 0.00932,0.0696 0.02689,0.1l-0.86301,0.4986l0.86301,-0.4986c0.01759,0.0305 0.04289,0.0558 0.07335,0.0734c0.03046,0.0176 0.06501,0.0268 0.10018,0.0269c0.0351,0 0.06958,-0.0092 0.1,-0.0267l14.19916,0zm0,0l-6.6,-3.8063l-0.49958,-0.2881l-0.49958,0.2881l-6.59979,3.8062l14.19895,0.0001z"/>
  <path id="svg_7" d="m3.858106,10.665541" opacity="0.5" stroke-opacity="null" stroke-width="2" stroke="white" fill="#000000"/>
  <rect id="svg_10" height="2.77027" width="5.405405" y="10.192568" x="4.939187" stroke-width="2" stroke="#000000" fill="#000000"/>
  <rect stroke="#000000" id="svg_11" height="1.486487" width="1.824324" y="22.827703" x="5.750002" stroke-width="2" fill="#000000"/>
  <rect stroke="#000000" id="svg_12" height="1.486487" width="1.824324" y="22.827703" x="9.060812" stroke-width="2" fill="#000000"/>
  <rect stroke="#000000" id="svg_13" height="1.486487" width="1.824324" y="22.827703" x="9.533785" stroke-width="2" fill="#000000"/>
  <rect stroke="#000000" id="svg_14" height="1.486487" width="1.824324" y="22.962839" x="5.277029" stroke-width="2" fill="#000000"/>
  <rect stroke="#000000" id="svg_15" height="1.486487" width="1.824324" y="23.570947" x="4.668921" stroke-width="2" fill="#000000"/>
  <path stroke="#000000" id="svg_18" d="m-0.229158,25.264493l8.684188,-4.560791l8.684188,4.560791l-8.684188,4.560791l-8.684188,-4.560791z" fill-opacity="null" stroke-opacity="null" stroke-width="2" fill="#000000"/>
  <rect stroke="#000000" id="svg_19" height="1.486487" width="1.824324" y="24.31419" x="12.439191" stroke-width="2" fill="#000000"/>
 </g>
</svg>